<?xml version="1.0" standalone="no"?>
<!DOCTYPE svg PUBLIC "-//W3C//DTD SVG 20010904//EN"
 "http://www.w3.org/TR/2001/REC-SVG-20010904/DTD/svg10.dtd">
<svg version="1.0" xmlns="http://www.w3.org/2000/svg"
 width="160.000000pt" height="160.000000pt" viewBox="0 0 160.000000 160.000000"
 preserveAspectRatio="xMidYMid meet">
<metadata>
Created by potrace 1.11, written by Peter Selinger 2001-2013
</metadata>
<g transform="translate(0.000000,160.000000) scale(0.100000,-0.100000)"
fill="#000000" stroke="none">
<path d="M690 1499 c-129 -35 -190 -82 -190 -145 0 -55 24 -91 70 -105 34 -10
47 -9 97 9 85 30 127 36 182 22 149 -35 237 -175 197 -312 -22 -78 -69 -137
-136 -171 -47 -24 -64 -28 -120 -25 -117 7 -189 61 -245 183 -18 40 -43 80
-56 89 -35 24 -87 20 -126 -10 -31 -23 -33 -29 -33 -85 0 -48 7 -73 34 -128
93 -184 270 -285 471 -268 66 6 95 15 214 64 12 5 13 -5 9 -54 -14 -152 -119
-256 -258 -256 -71 0 -132 27 -203 91 -30 27 -68 53 -85 57 -63 13 -132 -42
-132 -108 0 -13 14 -44 30 -69 120 -181 393 -241 616 -137 62 30 154 116 187
177 51 93 57 147 57 506 l0 329 -35 73 c-66 136 -180 232 -320 269 -65 17
-171 18 -225 4z"/>
</g>
</svg>
